<svg xmlns="http://www.w3.org/2000/svg" viewBox="0 0 40 40" width="40" height="40">
  <rect width="40" height="40" rx="10" fill="#3B99FC"/>
  <path fill="#fff" d="M11.2 14.3c4.9-4.7 12.7-4.7 17.6 0l.6.6c.2.2.2.5 0 .7l-2 1.9c-.2.2-.4.2-.6 0l-.8-.8c-3.4-3.3-8.9-3.3-12.3 0l-.9.8c-.2.2-.4.2-.6 0l-2-1.9c-.2-.2-.2-.5 0-.7l.99-.6Zm21.8 4 1.8 1.8c.2.2.2.5 0 .7l-8.1 7.8c-.2.2-.5.2-.7 0l-5.7-5.6c-.1-.1-.2-.1-.3 0l-5.7 5.6c-.2.2-.5.2-.7 0L6.2 20.8c-.2-.2-.2-.5 0-.7l1.8-1.8c.2-.2.5-.2.7 0l5.7 5.6c.1.1.2.1.3 0l5.7-5.6c.2-.2.5-.2.7 0l5.7 5.6c.1.1.2.1.3 0l5.7-5.6c.2-.2.5-.2.7 0Z"/>
</svg>
